<svg width="28" height="28" viewBox="0 0 28 28" fill="none" xmlns="http://www.w3.org/2000/svg">
<circle cx="13.76" cy="13.76" r="13.76" fill="black"/>
<path d="M13.75 23C12.4858 23 11.291 22.757 10.1656 22.2711C9.04021 21.7858 8.05755 21.1229 7.21765 20.2824C6.37713 19.4425 5.71422 18.4598 5.2289 17.3344C4.74297 16.209 4.5 15.0142 4.5 13.75C4.5 12.4704 4.74297 11.2719 5.2289 10.1545C5.71422 9.03651 6.37713 8.05755 7.21765 7.21765C8.05755 6.37713 9.04021 5.71391 10.1656 5.22797C11.291 4.74266 12.4858 4.5 13.75 4.5C15.0296 4.5 16.2281 4.74266 17.3455 5.22797C18.4635 5.71391 19.4425 6.37713 20.2824 7.21765C21.1229 8.05755 21.7858 9.03651 22.2711 10.1545C22.757 11.2719 23 12.4704 23 13.75V15.0913C23 16.0008 22.688 16.7754 22.0639 17.4149C21.4392 18.0549 20.6721 18.375 19.7625 18.375C19.2075 18.375 18.691 18.2517 18.2131 18.005C17.7352 17.7583 17.3421 17.4346 17.0338 17.0338C16.6175 17.45 16.1282 17.7778 15.5658 18.017C15.0028 18.2557 14.3975 18.375 13.75 18.375C12.4704 18.375 11.3798 17.9239 10.4783 17.0217C9.57609 16.1202 9.125 15.0296 9.125 13.75C9.125 12.4704 9.57609 11.3795 10.4783 10.4773C11.3798 9.57578 12.4704 9.125 13.75 9.125C15.0296 9.125 16.1205 9.57578 17.0227 10.4773C17.9242 11.3795 18.375 12.4704 18.375 13.75V15.0913C18.375 15.5383 18.5138 15.8889 18.7913 16.143C19.0688 16.3977 19.3925 16.525 19.7625 16.525C20.1325 16.525 20.4562 16.3977 20.7337 16.143C21.0112 15.8889 21.15 15.5383 21.15 15.0913V13.75C21.15 11.7304 20.4214 9.99203 18.9642 8.53485C17.5077 7.07828 15.7696 6.35 13.75 6.35C11.7304 6.35 9.99203 7.07828 8.53485 8.53485C7.07828 9.99203 6.35 11.7304 6.35 13.75C6.35 15.7696 7.07828 17.5077 8.53485 18.9642C9.99203 20.4214 11.7304 21.15 13.75 21.15H17.45C17.7121 21.15 17.9316 21.2388 18.1086 21.4164C18.2862 21.5934 18.375 21.8129 18.375 22.075C18.375 22.3371 18.2862 22.5566 18.1086 22.7336C17.9316 22.9112 17.7121 23 17.45 23H13.75ZM13.75 16.525C14.5208 16.525 15.176 16.2552 15.7156 15.7156C16.2552 15.176 16.525 14.5208 16.525 13.75C16.525 12.9792 16.2552 12.324 15.7156 11.7844C15.176 11.2448 14.5208 10.975 13.75 10.975C12.9792 10.975 12.324 11.2448 11.7844 11.7844C11.2448 12.324 10.975 12.9792 10.975 13.75C10.975 14.5208 11.2448 15.176 11.7844 15.7156C12.324 16.2552 12.9792 16.525 13.75 16.525Z" fill="white"/>
</svg>
