<svg width="28" height="29" viewBox="0 0 28 29" fill="none" xmlns="http://www.w3.org/2000/svg">
<path fill-rule="evenodd" clip-rule="evenodd" d="M27.5215 14.7266C27.5215 22.3259 21.3601 28.4873 13.7607 28.4873C6.16137 28.4873 0 22.3259 0 14.7266C0 7.12719 6.16137 0.96582 13.7607 0.96582C21.3601 0.96582 27.5215 7.12719 27.5215 14.7266ZM14.2539 11.1247C12.9156 11.6808 10.2403 12.8333 6.22903 14.5809C5.57769 14.8401 5.23596 15.0935 5.205 15.3412C5.15225 15.7609 5.67746 15.926 6.39071 16.1496C6.48819 16.1806 6.58911 16.2115 6.69231 16.2459C7.39525 16.4742 8.34016 16.7413 8.83096 16.7517C9.27703 16.7609 9.77472 16.5774 10.324 16.2012C14.0715 13.6704 16.006 12.3919 16.1276 12.3643C16.2136 12.3448 16.3328 12.3196 16.4131 12.3919C16.4934 12.4629 16.4854 12.5983 16.4773 12.6349C16.4246 12.8563 14.3674 14.7701 13.3009 15.7609C12.9683 16.0694 12.7333 16.2884 12.6851 16.3388C12.5773 16.4501 12.4672 16.5567 12.3618 16.6588C11.7081 17.2872 11.2196 17.7596 12.3893 18.5302C12.9511 18.9007 13.4007 19.2069 13.849 19.5119C14.3387 19.8456 14.8272 20.1781 15.4602 20.5933C15.6207 20.6987 15.7744 20.8076 15.9246 20.9143C16.4945 21.3214 17.0071 21.6861 17.6401 21.6288C18.0071 21.5944 18.3878 21.2492 18.5804 20.2183C19.0357 17.7803 19.9324 12.5008 20.14 10.3243C20.1526 10.1435 20.1449 9.962 20.117 9.78302C20.1004 9.63843 20.0299 9.50544 19.9199 9.4103C19.7558 9.27613 19.5012 9.24753 19.3866 9.24979C18.8694 9.25893 18.0759 9.53532 14.2539 11.1247Z" fill="black"/>
</svg>
