<svg width="29" height="30" viewBox="0 0 29 30" fill="none" xmlns="http://www.w3.org/2000/svg">
<path d="M0.00581131 29.1047L1.96349 21.9111C0.673531 19.6998 -0.00418558 17.1849 1.94496e-05 14.6249C1.94496e-05 6.62764 6.48263 0.14502 14.4798 0.14502C22.4771 0.14502 28.9597 6.62764 28.9597 14.6249C28.9597 22.622 22.4771 29.1047 14.4798 29.1047C11.921 29.1088 9.40707 28.4317 7.19649 27.1426L0.00581131 29.1047ZM9.25408 7.83092C9.06709 7.84252 8.88437 7.89178 8.71687 7.97571C8.5598 8.06465 8.41641 8.17586 8.29117 8.30585C8.11741 8.46947 8.01894 8.61137 7.91324 8.74894C7.37809 9.44537 7.09023 10.3003 7.09513 11.1787C7.09803 11.8882 7.28337 12.5788 7.57297 13.2246C8.16519 14.5307 9.13968 15.9136 10.4269 17.195C10.7369 17.5035 11.0394 17.8133 11.3653 18.1014C12.9629 19.5081 14.8668 20.5226 16.9255 21.064L17.7494 21.19C18.0173 21.2045 18.2851 21.1842 18.5545 21.1711C18.9762 21.1494 19.388 21.0352 19.7607 20.8367C19.9502 20.739 20.1353 20.6327 20.3152 20.5182C20.3152 20.5182 20.3775 20.4776 20.4963 20.3878C20.6917 20.243 20.8119 20.1402 20.9741 19.9708C21.0942 19.8463 21.1985 19.7 21.2782 19.5335C21.3911 19.2974 21.5041 18.8472 21.5504 18.4721C21.5851 18.1854 21.575 18.029 21.5707 17.9321C21.5649 17.7771 21.436 17.6164 21.2956 17.5483L20.4528 17.1704C20.4528 17.1704 19.1931 16.6216 18.4241 16.2712C18.3431 16.2359 18.2562 16.2157 18.1679 16.2119C18.0688 16.2017 17.9687 16.2128 17.8742 16.2446C17.7798 16.2762 17.6934 16.3278 17.6206 16.3957V16.3928C17.6133 16.3928 17.5163 16.4754 16.4694 17.7438C16.4093 17.8246 16.3265 17.8856 16.2316 17.9191C16.1368 17.9526 16.034 17.9572 15.9365 17.9321C15.8421 17.9068 15.7498 17.8749 15.66 17.8365C15.4804 17.7612 15.4181 17.7322 15.2951 17.6786L15.2878 17.6757C14.4595 17.314 13.6925 16.8256 13.0145 16.2277C12.832 16.0684 12.6627 15.8947 12.4889 15.7267C11.9192 15.1812 11.4228 14.564 11.012 13.8907L10.9265 13.7532C10.8651 13.6607 10.8155 13.561 10.7788 13.4563C10.7238 13.2435 10.8672 13.0726 10.8672 13.0726C10.8672 13.0726 11.219 12.6875 11.3827 12.4789C11.5189 12.3056 11.646 12.1253 11.7634 11.9388C11.9343 11.6637 11.9879 11.3814 11.8981 11.1627C11.4927 10.1723 11.0728 9.18623 10.6412 8.20738C10.5558 8.01335 10.3024 7.87435 10.0722 7.84684C9.99399 7.83815 9.9158 7.82947 9.83761 7.82368C9.64316 7.81401 9.4483 7.81594 9.25408 7.82947V7.83092Z" fill="black"/>
</svg>
